<svg width="512" height="512" viewBox="0 0 512 512" fill="none" xmlns="http://www.w3.org/2000/svg" role="img" aria-labelledby="title desc">
  <title id="title">Novyra Life Sciences logo</title>
  <desc id="desc">Stylized N ribbon with a DNA helix and molecular dots.</desc>
  <defs>
    <linearGradient id="novyraRibbon" x1="28" y1="96" x2="474" y2="430" gradientUnits="userSpaceOnUse">
      <stop offset="0" stop-color="#022a5c"/>
      <stop offset="0.48" stop-color="#177f91"/>
      <stop offset="1" stop-color="#52c99f"/>
    </linearGradient>
    <linearGradient id="novyraDna" x1="335" y1="130" x2="475" y2="430" gradientUnits="userSpaceOnUse">
      <stop offset="0" stop-color="#027181"/>
      <stop offset="1" stop-color="#60d4a4"/>
    </linearGradient>
    <linearGradient id="novyraDot" x1="374" y1="28" x2="489" y2="128" gradientUnits="userSpaceOnUse">
      <stop offset="0" stop-color="#17828e"/>
      <stop offset="1" stop-color="#59cfa3"/>
    </linearGradient>
  </defs>

  <path d="M55 123c42 3 81 24 114 62l220 254c25 29 57 46 93 50-52 9-101-5-142-43L117 239v162c0 42-28 77-68 87V160l57 70 39 45-55-116c-10-20-22-32-35-36Z" fill="url(#novyraRibbon)"/>
  <path d="M49 160v329c40-10 68-45 68-87V239L49 160Z" fill="#002b61"/>
  <path d="M95 152l247 284c39 45 89 63 140 53-44-4-78-22-103-52L158 184c-31-35-67-56-106-61 17 7 31 17 43 29Z" fill="url(#novyraRibbon)"/>
  <path d="M95 152l31 36-72 91v-86l41-41Z" fill="white"/>
  <path d="M341 147c45-30 102-26 137 11-50-8-94 16-123 65-37 63-26 127 30 185-71-36-93-105-57-174 12-24 31-52 13-87Z" fill="url(#novyraDna)"/>
  <path d="M468 129c25 60 6 102-36 148-50 54-53 111-11 169-65-38-78-110-30-176 35-49 83-75 77-141Z" fill="url(#novyraDna)"/>
  <path d="M365 172h77" stroke="#06456b" stroke-width="14" stroke-linecap="round"/>
  <path d="M352 210h82" stroke="#06456b" stroke-width="14" stroke-linecap="round"/>
  <path d="M355 248h55" stroke="#06456b" stroke-width="14" stroke-linecap="round"/>
  <path d="M385 331h58" stroke="#06456b" stroke-width="14" stroke-linecap="round"/>
  <path d="M400 369h40" stroke="#06456b" stroke-width="14" stroke-linecap="round"/>
  <circle cx="420" cy="49" r="18" fill="url(#novyraDot)"/>
  <circle cx="472" cy="80" r="26" fill="url(#novyraDot)"/>
  <circle cx="382" cy="99" r="23" fill="url(#novyraDot)"/>
  <circle cx="449" cy="136" r="15" fill="url(#novyraDot)"/>
</svg>
